<svg xmlns="http://www.w3.org/2000/svg" viewBox="0 0 440 440">
    <path d="M218 5c2.3.4 3.7.7 5.4 2.4l1.2 1.7 1.4 2 1.5 2.3 1.6 2.3a489 489 0 0 1 50.2 91.3c7.8 19.3 10.8 32.2 2.7 52q-3 7-6.6 14c-13.8 28.6-26 57.5-31.4 89l-.7 4-1.3 8 10 1-.1-3.4c0-21.2 9-43.3 19.1-61.6l1.7-3.2a115 115 0 0 1 18-23.8 89 89 0 0 1 57.6-27.1c23.7-.7 44.7 3.6 62.8 20.2a80 80 0 0 1 23.2 58.7 51 51 0 0 1-5.6 25A69 69 0 0 1 415 278l-1.8 1.9C404.7 288.2 388 297 376 297q2.1-5.4 5-10.6a35 35 0 0 0 2-27.4 51 51 0 0 0-27-29.3 51 51 0 0 0-17-5.7l-3.7-.4a57 57 0 0 0-41 9.7L290 237l-2.3 2a66 66 0 0 0-19.7 39l3.3-.1q8.2.2 16.2 1.6l3.3.5 34.2 5c-2 3-2 3-4.3 3.7l-3 .4-3.3.5-3.6.4-3.7.6-9.7 1.3-10 1.4L268 296l1.9 5.3 1 3A32 32 0 0 0 291 322l3.3 1.3c11 2 20.6 1 30.2-4.8 8-5.7 13.7-13.8 15.5-23.5q.7-10-1-20c8.3.4 14.2 6 19.8 11.7a53 53 0 0 1 12 38.3 54 54 0 0 1-21.2 34.9c-12.4 9.2-27.4 9.5-42.2 7.6A68 68 0 0 1 277 351l-1.9-1.6c-13.4-12.2-20-31-23.1-48.4v-3l-9 1a402 402 0 0 0 11 41l.7 2.1a286 286 0 0 0 13.8 33l1.4 3 1.3 2.5c.9 2.7 1 3.8-.2 6.4a65 65 0 0 1-9 5.2 54 54 0 0 1-14 4.8v2c-.3 10.4-4.7 20-11.9 27.6a34 34 0 0 1-16.5 9A38 38 0 0 1 198 421c-4.7-7.6-7.4-15-7-24l-2.5-.2c-4.3-1-7.8-2.7-11.7-4.8l-2.2-1.1-5.6-2.9-2-1c.5-6.3 3.4-11.4 6-17a331 331 0 0 0 23-71l-9-1-.5 3c-3.5 21-12.3 40-28.8 54a73 73 0 0 1-50.7 13 51 51 0 0 1-30-19 50 50 0 0 1-7.8-40.6A49 49 0 0 1 90 278c3.9-2.2 5.5-3 10-3l-.5 2.6c-1.9 12.3-.7 23 6.7 33.2a37 37 0 0 0 24.8 13.5c11.5.4 21.5-2.4 30-10.3l1.7-1.6c5-5.1 5.6-9 8.3-16.4l-56-8-1-3 37.5-5.5 3.1-.4q8.1-1.3 16.4-1.1a75 75 0 0 0-17-36l-1.5-1.8a55 55 0 0 0-38.9-17.2 67 67 0 0 0-46.5 17.3 47 47 0 0 0-13.6 34.9 37 37 0 0 0 8.2 18C63 295 63 295 63 297a72 72 0 0 1-43-22l-2-1.8c-11.6-12-14.4-28-14.4-44A73 73 0 0 1 22 182l2.2-3A73 73 0 0 1 64 157l2.6-.6a96 96 0 0 1 81.5 26.4c23.5 22 37.5 58.1 38.9 89.9v2.3l10-1-1-2-.8-6.4c-3.8-30.8-16-58.7-29.2-86.6l-7.4-16a54 54 0 0 1-3.7-43.6l5.2-13.2A447 447 0 0 1 218 5"/>
</svg>
